<?xml version="1.0" standalone="no"?>
<!DOCTYPE svg PUBLIC "-//W3C//DTD SVG 20010904//EN"
 "http://www.w3.org/TR/2001/REC-SVG-20010904/DTD/svg10.dtd">
<svg version="1.0" xmlns="http://www.w3.org/2000/svg"
 width="1024.000000pt" height="1024.000000pt" viewBox="0 0 1024.000000 1024.000000"
 preserveAspectRatio="xMidYMid meet">
<metadata>
Created by potrace 1.11, written by Peter Selinger 2001-2013
</metadata>
<g transform="translate(0.000000,1024.000000) scale(0.100000,-0.100000)"
fill="#000000" stroke="none">
<path d="M2669 10236 c-2 -2 -76 -7 -164 -10 -275 -12 -330 -18 -625 -62 -71
-11 -213 -44 -315 -73 -458 -131 -910 -476 -1180 -901 -88 -138 -183 -339
-225 -475 -55 -179 -109 -468 -125 -665 -4 -41 -8 -93 -10 -115 -16 -163 -20
-663 -20 -2825 0 -2219 3 -2570 20 -2805 22 -292 63 -532 130 -762 51 -175
157 -390 278 -563 165 -235 370 -435 587 -574 25 -16 57 -37 72 -47 34 -23
284 -149 296 -149 5 0 23 -7 40 -16 71 -35 361 -106 547 -133 177 -26 289 -36
550 -49 197 -9 4996 -9 5190 0 181 9 285 16 345 23 110 13 139 17 205 26 95
14 99 15 190 34 44 9 89 19 101 21 11 2 67 18 124 35 219 64 426 169 625 315
96 70 121 90 216 180 294 274 530 685 605 1049 2 11 6 29 8 40 27 131 35 176
40 210 4 22 8 54 11 70 7 46 13 103 20 185 4 41 8 86 11 99 28 181 28 5420 0
5641 -2 14 -7 59 -10 100 -4 41 -9 89 -11 105 -2 17 -7 52 -10 79 -19 156 -77
413 -127 556 -31 89 -149 333 -174 361 -8 8 -14 19 -14 22 0 12 -82 128 -151
214 -158 198 -347 366 -554 493 -83 51 -283 152 -346 175 -182 66 -447 125
-679 150 -30 3 -66 8 -80 10 -14 2 -70 7 -125 10 -55 4 -127 9 -160 12 -68 6
-5100 14 -5106 9z"/>
</g>
</svg>
