<?xml version="1.0" encoding="UTF-8" standalone="no"?>
<svg width="1024px" height="1024px" viewBox="0 0 1024 1024" version="1.1" xmlns="http://www.w3.org/2000/svg" xmlns:xlink="http://www.w3.org/1999/xlink" xmlns:sketch="http://www.bohemiancoding.com/sketch/ns">
    <!-- Generator: Sketch 3.3.3 (12081) - http://www.bohemiancoding.com/sketch -->
    <title>Vou de ônibus</title>
    <desc>Created with Sketch.</desc>
    <defs></defs>
    <g id="Page-1" stroke="none" stroke-width="1" fill="none" fill-rule="evenodd" sketch:type="MSPage">
        <g id="Vou-de-ônibus" sketch:type="MSLayerGroup">
            <rect id="background" opacity="0.01" fill="#FFFFFF" sketch:type="MSShapeGroup" x="0" y="0" width="1024" height="1024" rx="238"></rect>
            <g id="fundo-+-traco-+-Imported-Layers" transform="translate(76.000000, 76.000000)" sketch:type="MSShapeGroup">
                <rect id="traco" stroke="#000000" stroke-width="14" x="30" y="30" width="815" height="815" rx="165"></rect>
                <path d="M726.58,266.68 L713.44,266.68 L713.44,200.98 C713.44,179.299 697.57345,153.62344 678.18538,143.93269 C678.18538,143.93269 608.32,109 437.5,109 C266.68,109 196.82119,143.93269 196.82119,143.93269 C177.42655,153.62344 161.56,179.299 161.56,200.98 L161.56,266.68 L148.42,266.68 C126.739,266.68 109,284.419 109,306.1 L109,345.52 C109,367.201 126.739,384.94 148.42,384.94 L161.56,384.94 L161.56,654.31 C161.56,671.38543 172.57789,685.96426 187.84,691.41079 L187.84,713.44 C187.84,742.348 211.492,766 240.4,766 C269.308,766 292.96,742.348 292.96,713.44 L292.96,693.73 L582.04,693.73 L582.04,713.44 C582.04,742.348 605.692,766 634.6,766 C663.508,766 687.16,742.348 687.16,713.44 L687.16,691.41079 C702.42211,685.96426 713.44,671.37886 713.44,654.31 L713.44,384.94 L726.58,384.94 C748.261,384.94 766,367.201 766,345.52 L766,306.1 C766,284.419 748.261,266.68 726.58,266.68 L726.58,266.68 Z M306.1,174.7 C306.1,167.473 312.013,161.56 319.24,161.56 L555.76,161.56 C562.987,161.56 568.9,167.473 568.9,174.7 L568.9,200.98 C568.9,208.207 562.987,214.12 555.76,214.12 L319.24,214.12 C312.013,214.12 306.1,208.207 306.1,200.98 L306.1,174.7 L306.1,174.7 Z M246.97,641.17 C228.82366,641.17 214.12,626.4532 214.12,608.32 C214.12,590.1868 228.82366,575.47 246.97,575.47 C265.10977,575.47 279.82,590.1868 279.82,608.32 C279.82,626.4532 265.10977,641.17 246.97,641.17 L246.97,641.17 Z M628.03,641.17 C609.88366,641.17 595.18,626.4532 595.18,608.32 C595.18,590.1868 609.88366,575.47 628.03,575.47 C646.17634,575.47 660.88,590.1868 660.88,608.32 C660.88,626.4532 646.17634,641.17 628.03,641.17 L628.03,641.17 Z M660.88,490.06 C660.88,497.287 654.967,503.2 647.74,503.2 L227.26,503.2 C220.033,503.2 214.12,497.287 214.12,490.06 L214.12,279.82 C214.12,272.593 220.033,266.68 227.26,266.68 L647.74,266.68 C654.967,266.68 660.88,272.593 660.88,279.82 L660.88,490.06 L660.88,490.06 Z" id="Imported-Layers" fill="#000000"></path>
            </g>
        </g>
    </g>
</svg>